<svg xmlns="http://www.w3.org/2000/svg" viewBox="0 0 253.45 175.33"><defs><style>.cls-1,.cls-3{fill:none;}.cls-2{fill:#fff;}.cls-3{stroke:#000;stroke-linecap:round;stroke-linejoin:round;stroke-width:0;}</style></defs><g id="Layer_2" data-name="Layer 2"><g id="Layer_1-2" data-name="Layer 1"><path class="cls-1" d="M113,136.55a7.12,7.12,0,0,1-2.67,1A14.52,14.52,0,0,0,113,136.55Z"/><path class="cls-1" d="M59.34,141.5l-.26-.14a15.35,15.35,0,0,1-1.54-4l-.09-.72A32.71,32.71,0,0,0,59.34,141.5Z"/><path class="cls-1" d="M96.25,78.75l-.06.26a.3.3,0,0,0,0-.08Z"/><path class="cls-1" d="M28.46,75.56s.05.11.08.16v0A1,1,0,0,0,28.46,75.56Z"/><path class="cls-1" d="M6.34,55.18c-.13.41-.25.83-.37,1.25l0-.07c.08-.26.17-.52.26-.78Z"/><path class="cls-2" d="M250.1,18.9c-6.34-7.59-12.8-2.72-18.53,2.32a56.14,56.14,0,0,1-7.14,4c-3.94,2-8.42,2.07-12.73,1.67-6.31-.68-12.65-1.7-19-1.26S179.74,27,174,30l.09-.38c.58-2.63,1.21-5.78,1.62-9,.18-1.23.3-2.51.36-3.81A26.5,26.5,0,0,0,175,6.33c-1.67-4.65-7-7.63-11.72-5.76-8,3.33-14.65,9.52-20.17,16.12-.53.67-1,1.35-1.55,2-.36-.18-.73-.35-1.11-.5A16.52,16.52,0,0,0,132.81,17c-3.76,0-7.48,1.43-9.35,4.84-1.43,3.09-.24,6.45,1,9.49.52,2.67,1.35,5.3,2.11,7.91A42.82,42.82,0,0,0,116,37.77a41.11,41.11,0,0,0-6.07.08,21.5,21.5,0,0,0-1.72-7,31,31,0,0,0-5.55-9.67A29,29,0,0,0,97.56,17c-8.68-7-21.11-7.89-32.47-6.68-22,1.6-44.05,12-56.13,31C2.6,50.55-1.19,62,.33,73.24A42.2,42.2,0,0,0,2,83c2.67,7.57,8.37,15,16.5,16.88l-.15,1a109.68,109.68,0,0,1-5.06,22.14C10.84,130,7.73,136.71,4.77,143.4l-.87,1.9c-1.82,3.45-4.29,7.53-2.68,11.5,1.53,4.66,6.37,4.36,10.31,3.43A40.8,40.8,0,0,1,21.9,159c6.29,0,12.11,2.65,18.23,3.7a20.87,20.87,0,0,0,13-1.93c.91-.5,2.26-1.13,3.41-1.9a33.26,33.26,0,0,0,3.11,2,27.94,27.94,0,0,0,10.18,4.67,5.71,5.71,0,0,0,.78.24,33.49,33.49,0,0,0,8.62,1.84,35.14,35.14,0,0,0,14.13-2.5,32.08,32.08,0,0,0,14.58-11.24c.25,0,.48,0,.69,0a15.19,15.19,0,0,0,7.82-1.69,14.67,14.67,0,0,0,1.54-.89,16.51,16.51,0,0,0-.4,2.81,6.21,6.21,0,0,0,.42,3.24c1.33,3.84,5.82,5.78,14.31,5.55,4.57,0,9.27-.21,13.46,1.92,10.61,4.31,21.45,10.11,33.17,10.47a43.18,43.18,0,0,0,22.64-6.16,74.71,74.71,0,0,0,12.31-11.06c4.78-4.5,9.49-9.09,13.81-14,.42-.49.83-1,1.23-1.51,4.77-5.06,9.38-11.26,8.11-16.45a6.1,6.1,0,0,0-1.82-2.73c-.05-.06-.09-.12-.14-.17a12.4,12.4,0,0,0-6.8-3c1.15-5.31,2.08-10.66,2.84-16q.85-5.41,1.35-10.88c.46-3.21.89-6.42,1.26-9.65a183.89,183.89,0,0,0,.84-19.21c2.36-.91,5.18-3.58,6.26-4.63a48.1,48.1,0,0,0,8.24-12.92,39.82,39.82,0,0,0,4.31-15.87A17,17,0,0,0,250.1,18.9ZM248,40a37.68,37.68,0,0,1-3,7.45c-2.76,6.5-7.6,12.52-14.19,14.92,0,.55,0,1.09,0,1.64a270,270,0,0,1-2.61,36.71c-1,7.52-1.67,15.12-3.31,22.54,3.11.3,5,1.08,6,2.19,1.68,1.2,2.49,3.1,1.34,5.89a29.11,29.11,0,0,1-3.1,4.67c-6.25,7.42-12.73,14.67-19.49,21.62a55.41,55.41,0,0,1-10.26,8.49,28.84,28.84,0,0,1-21.32,5.92c-14.94-.87-27.59-10.33-42.08-13a66.46,66.46,0,0,0-7.73-.53c-2-.1-4.17.28-5.89-.87a4.08,4.08,0,0,1-1-5.65,9.77,9.77,0,0,1,2.27-4.78c.68-.85,1.38-1.67,2.11-2.48a10.82,10.82,0,0,1-2.65-2.16c-4.81,4-10,7.33-14.69,6.81a17,17,0,0,1-2-.58c-.12.2-.22.41-.35.61-5.12,8.63-12.25,13-20.89,13.75a27.85,27.85,0,0,1-6.43.64,32.65,32.65,0,0,1-20.76-8.43c-.27-.2-.55-.43-.84-.67-2.61,2.3-7.23,3.8-9.69,4.33a26.74,26.74,0,0,1-10,0,77.67,77.67,0,0,1-9.84-2.61,37.7,37.7,0,0,0-11-.47,41.06,41.06,0,0,0-4.24.79c-2.36.79-5.23,1.9-7.11-.45-1.66-1.95-.93-4.52.43-6.42,1.33-2.41,2.67-5.25,3.72-7.61a188.58,188.58,0,0,0,7.87-21.74A190.44,190.44,0,0,0,22.7,97.86l-.52-.13C11.33,94.49,6.12,86.33,5,77A43.58,43.58,0,0,1,6,56.43l0-.07c.08-.26.17-.52.26-.78l.15-.4A47.48,47.48,0,0,1,13,41.5a47.84,47.84,0,0,1,4.79-5.62c12.37-14.65,32.07-21.13,51.12-22.6,7.58-.43,15.6,0,22.36,3.82,7.92,4.32,14.18,13.11,14.18,22.27.12.85.22,1.71.28,2.58a37.66,37.66,0,0,1,13.17-1,41,41,0,0,1,12.44,3.3c-.33-1.82-.7-3.63-1.15-5.42-.81-3.1-1.81-6.14-2.78-9.19-.6-2.08-1.78-4.42-.32-6.42a4,4,0,0,1,.4-.5,3.81,3.81,0,0,1,2.81-2.24c3.74-1.06,7.7.56,11.37,1.33.36.13.78.26,1.24.4,5.89-6.46,12.15-12.69,19.51-17.43a5.47,5.47,0,0,1,8.26,2.16l.11.15c1.84,2.87,1.76,6.51,1.61,9.8-.64,7.25-2.54,14.33-3.79,21.5A36.69,36.69,0,0,1,174,34.11,23.65,23.65,0,0,1,184.83,30c8.78-1.92,18.74.09,31.19,1.45,8.48.47,15.86-4.74,21.75-10.33,4.68-5.78,10.21-2.78,11.4,3.83C250.24,30,249.39,35.19,248,40Z"/><path d="M36.31,78.29a4.69,4.69,0,0,1,.43,2q1-4.74,1.93-9.48c1.2-5.94,2.16-11.93,3.22-17.89A27.2,27.2,0,0,1,44,51.23l-.09.06.09-.06,0,0c.81-.55,1.65-1.08,2.52-1.56a42.85,42.85,0,0,1,7.92-3.37c1.41-.44,2.85-.86,4.3-1.17.25-.06.51-.11.76-.15-2.68,13.4-5,26.88-7.3,40.35a41.22,41.22,0,0,0,11.77-7.46A38.27,38.27,0,0,0,75.9,58.64c1.39-4.94,2.33-11.47-.42-16.08A6.46,6.46,0,0,0,73.7,40.8a8.35,8.35,0,0,0-.94-.75A17.47,17.47,0,0,0,68.3,37.8a15.72,15.72,0,0,0-1.66-.47c-.8-.25-1.61-.46-2.42-.64a25.18,25.18,0,0,0-4.74-.51,27.16,27.16,0,0,0-8.9,1.35,32.33,32.33,0,0,0-4.16,1.63,28.29,28.29,0,0,0-3.75,2.23h0l0,0A34.68,34.68,0,0,0,35,49v0h0a41.46,41.46,0,0,0-3.09,4.78,30,30,0,0,0-2.14,4.86A38.48,38.48,0,0,0,28,66.44a34.17,34.17,0,0,0-.28,4.74,17.25,17.25,0,0,0,.21,2.38,7,7,0,0,0,.53,2,1,1,0,0,1,.08.11v0a3.87,3.87,0,0,0,.21.34,3.37,3.37,0,0,0,.3.36,1.46,1.46,0,0,0,.6.63,2.32,2.32,0,0,0,.68.52l.1,0a3.48,3.48,0,0,0,3.51.42C34.88,77.76,35.67,77.48,36.31,78.29Zm9.77-30.62Zm-.72-6.47Z"/><path d="M117.59,88.2c1.65-3.18.4-9-3.81-9h-.16a1.38,1.38,0,0,0-1,1,22.45,22.45,0,0,0-1,2.56c-.81,2.37-1.51,4.77-2.2,7.18q-.61,2.16-1.2,4.32C111.93,93.53,115.8,91.78,117.59,88.2Z"/><path d="M153.39,83.79c0,.38-.1.76-.16,1.13q-1,10.13-2.37,20.23c-.48,4-.89,8-1.29,12.07a8,8,0,0,0,1,0c11.2-.73,15.3-13.9,15.14-23.42C165.35,87.15,159.22,84.36,153.39,83.79Z"/><path d="M249.17,25c-1.19-6.61-6.72-9.61-11.4-3.83C231.88,26.74,224.5,32,216,31.48c-12.45-1.36-22.41-3.37-31.19-1.45A23.65,23.65,0,0,0,174,34.11a36.69,36.69,0,0,0-5.41,4.27c1.25-7.17,3.15-14.25,3.79-21.5.15-3.29.23-6.93-1.61-9.8l-.11-.15a5.47,5.47,0,0,0-8.26-2.16c-7.36,4.74-13.62,11-19.51,17.43-.46-.14-.88-.27-1.24-.4-3.67-.77-7.63-2.39-11.37-1.33a3.81,3.81,0,0,0-2.81,2.24,4,4,0,0,0-.4.5c-1.46,2-.28,4.34.32,6.42,1,3.05,2,6.09,2.78,9.19.45,1.79.82,3.6,1.15,5.42a41,41,0,0,0-12.44-3.3,37.66,37.66,0,0,0-13.17,1c-.06-.87-.16-1.73-.28-2.58,0-9.16-6.26-17.95-14.18-22.27-6.76-3.78-14.78-4.25-22.36-3.82-19.05,1.47-38.75,8-51.12,22.6A47.84,47.84,0,0,0,13,41.5,47.48,47.48,0,0,0,6.34,55.18c-.13.41-.25.83-.37,1.25A43.58,43.58,0,0,0,5,77c1.16,9.34,6.37,17.5,17.22,20.74l.52.13a190.44,190.44,0,0,1-5.29,22.72,188.58,188.58,0,0,1-7.87,21.74c-1,2.36-2.39,5.2-3.72,7.61-1.36,1.9-2.09,4.47-.43,6.42,1.88,2.35,4.75,1.24,7.11.45a41.06,41.06,0,0,1,4.24-.79,37.7,37.7,0,0,1,11,.47,77.67,77.67,0,0,0,9.84,2.61,26.74,26.74,0,0,0,10,0c2.46-.53,7.08-2,9.69-4.33.29.24.57.47.84.67a32.65,32.65,0,0,0,20.76,8.43,27.85,27.85,0,0,0,6.43-.64c8.64-.75,15.77-5.12,20.89-13.75.13-.2.23-.41.35-.61a17,17,0,0,0,2,.58c4.66.52,9.88-2.83,14.69-6.81a10.82,10.82,0,0,0,2.65,2.16c-.73.81-1.43,1.63-2.11,2.48a9.77,9.77,0,0,0-2.27,4.78,4.08,4.08,0,0,0,1,5.65c1.72,1.15,3.92.77,5.89.87a66.46,66.46,0,0,1,7.73.53c14.49,2.69,27.14,12.15,42.08,13a28.84,28.84,0,0,0,21.32-5.92,55.41,55.41,0,0,0,10.26-8.49c6.76-6.95,13.24-14.2,19.49-21.62a29.11,29.11,0,0,0,3.1-4.67c1.15-2.79.34-4.69-1.34-5.89-1-1.11-2.93-1.89-6-2.19,1.64-7.42,2.29-15,3.31-22.54a270,270,0,0,0,2.61-36.71c0-.55,0-1.09,0-1.64C237.42,60,242.26,54,245,47.49A37.68,37.68,0,0,0,248,40C249.39,35.19,250.24,30,249.17,25ZM93.78,148c-3.53,4.71-9.57,7.14-15.36,7.14h-.56c-8.53-.35-14.94-6.28-18.52-13.68l-.26-.14a15.35,15.35,0,0,1-1.54-4l-.09-.72a31.89,31.89,0,0,1-1.28-7.07,41.22,41.22,0,0,1,2.13-15.81,49,49,0,0,1,2.56-6.13,7.64,7.64,0,0,0,.86-2,2,2,0,0,0-.66-.34c-1.68-.55-3.39-1-5.1-1.47-2.17-.56-4.35-1.12-6.56-1.54-1.31,8.29-2.95,16.53-4.43,24.8-.65,4.31-1.51,8.6-2,12.93-.17,2.6-.2,6.19,2.86,7.05a.74.74,0,0,1,.61.56c0,1.58-5.76,1.75-6.94,1.53-8.62-1.15-13.05-7.9-22.29-3a2.3,2.3,0,0,1-1.53.32c.42-.48.82-1,1.2-1.49.12-.15.23-.31.34-.46.81-1.15,1.56-2.35,2.29-3.56s1.51-2.49,2.14-3.8c.47-1,.89-2,1.28-3a24,24,0,0,0,1.14-2.88c3.75-9.74,6.13-19.88,8.17-30.08q2-9.18,4-18.37a10.12,10.12,0,0,1-2.85,3.91,7.1,7.1,0,0,1-4.7,1.48,11.42,11.42,0,0,1-7.47-1C12.73,83.06,11.88,72,13.58,63.78a40.1,40.1,0,0,1,6-14.57,57.1,57.1,0,0,1,15-15.78,60.53,60.53,0,0,1,14.92-7.28C58.63,23.3,68.45,21.48,78,23c14.71,2.41,20,11.55,17.92,25.91a54.57,54.57,0,0,1-4.78,14.86,84.66,84.66,0,0,1-6.94,12.41C80.12,82.3,74.76,87.71,68,90.64A43,43,0,0,1,60.61,93c1.74.41,3.46.85,5.19,1.22,5.45,1.32,11,2.46,16.42,3.68.72.22,1.68.19,2.16.86.5,1.28-.9,2.74-1.44,3.86-1.24,2.1-2.5,4.31-3.6,6.46-3.5,7-5.7,14.88-5.17,22.78.41,7.13,3,13.29,10.44,15.11a12,12,0,0,0,5.3-.68,21.51,21.51,0,0,0,3.47-1.62c.59-.27,1.43-1,2-.37C96,145.31,94.34,147.22,93.78,148Zm15.74-25.25c4.19.87,8.56.07,12.52-1.3,1.22-.43,2.43-.9,3.62-1.4.82-.23,2.64-1.53,3.13-.37.09.81-.55,1.5-.85,2.2a41.48,41.48,0,0,1-2.93,4.59,29.89,29.89,0,0,1-11.3,9.72l-.73.32a7.12,7.12,0,0,1-2.67,1,5.67,5.67,0,0,1-1.17.13H109a28.53,28.53,0,0,1-4.57-2.64c-2.12-1.36-4.21-2.74-6.3-4.14a70.19,70.19,0,0,1-6.4-4.84,24.64,24.64,0,0,1-4.1-4,2.65,2.65,0,0,1-.66-1.79c.18-1.13.48-2.23.74-3.35.9-3.63,1.81-7.25,2.66-10.9,2.17-9,3.76-18,5.83-27a.3.3,0,0,0,0-.08l.1-.18,0-.11c.21-1.22.43-2.43.74-3.63.09-.28.13-.66.45-.79a.49.49,0,0,1,.53.1,15.92,15.92,0,0,0,8.09-2,25.72,25.72,0,0,0,5.86-3.8c1.93-1.68,3.64-4.34,6.59-3.36a43.64,43.64,0,0,1,6.61,4.07c4.18,2.95,8.2,7.69,7.73,13.11-.21,2.12-1.34,4-2.31,5.84s-2,3.72-3.13,5.51a23.57,23.57,0,0,1-5.24,6.14,40.9,40.9,0,0,1-7,3.45,33.39,33.39,0,0,1-9.82,1.73,68.43,68.43,0,0,0-1.65,10.17C103.29,120.6,104.4,121.52,109.52,122.79Zm22.37,12.6c-.86-.19,0-3.13-.06-3.85,1.07-8.73,2.54-17.41,3.77-26.12s1.73-17.76,3-26.59c1.53-11.56,3.75-23.2,3.21-34.9-.15-4.17-1.94-7.93-3.18-11.84l-.8-2.3a1.56,1.56,0,0,1-.14-.71.3.3,0,0,1,0-.1.5.5,0,0,1,.78-.54c.2.1.38.21.57.32,2.07,1.18,4.06,2.48,6.14,3.62,1.25.8,1.43.25,2.28-.64,2.08-2.51,3.82-5.27,5.79-7.86a104.37,104.37,0,0,1,8.72-10.61c1.24-1.3,2.53-.6,2,1.19q-1.6,5.43-3,10.93a0,0,0,0,1,0,0c-2.1,11.41-4,22.87-5.47,34.38v0q-.52,7.32-1.18,14.65a31.26,31.26,0,0,0,4.42-1.25c1.93-.68,3.81-1.49,5.68-2.32,2.7-1.16,3.76-2.06,6.15.36a36.83,36.83,0,0,1,9.12,13.62,40.33,40.33,0,0,1,1.1,15.62c-.83,8.4-3.17,17-8.94,23.42-4,4.63-10.06,8.12-16.36,7.28a25.89,25.89,0,0,1-5.92-1.52c-1.77-.54-3.48-1.54-5.35-1.41a28.55,28.55,0,0,0-8.72,4.94,25.32,25.32,0,0,1-2.87,2.09,1.11,1.11,0,0,1-.44.12A.64.64,0,0,1,131.89,135.39ZM237.45,42.47c-2.87,8.68-8,11.87-14.59,12.83,0,.89-.07,1.78-.11,2.68-.26,6.72-.8,13.43-1.45,20.13-1.06,11.17-2.12,22.37-4.21,33.41a105.29,105.29,0,0,1-3,12.22c-.57,1.84-1.29,3.76-1.93,5.55a5.6,5.6,0,0,0-.42,1.63c0,.05,0,.1,0,.15a53.23,53.23,0,0,0,6.8-.07c1.6-.13,3.19.25,1.61,2-3.49,3.83-7.17,7.47-10.81,11.16-2.14,2.06-4.36,4.42-6.7,6.71-4.81,5.58-11,11.4-18.72,11.4a15.2,15.2,0,0,1-1.76-.1,61.77,61.77,0,0,1-20.78-5c-8.74-4-15-9.13-24.65-7.37-1.3.57-3.49,1.79-4.11,1.1-.45-.71.53-1.24,1-1.68q1.76-1.53,3.54-3a76.35,76.35,0,0,1,7.08-5.26c1.09-.8,2.19-1.58,3.31-2.33,4.7-3.28,7.45-3.36,12.48-.68,4,2.09,7.92,4.51,12.17,6.12a24.61,24.61,0,0,0,5.22,1.24,16.68,16.68,0,0,0,3.93-.77l.15-.05h0c7-3.76,10-11.75,11.86-19A150.69,150.69,0,0,0,197,106.23c.85-5.88,1.9-11.73,2.65-17.61.51-4.06.94-8.14,1.19-12.21a48.17,48.17,0,0,0-.14-10.87,6.42,6.42,0,0,0-.43-1.37.6.6,0,0,1,.28-.76c1.27-.7,2.72-1,4-1.63a37.36,37.36,0,0,0,10.2-6.17c-1.43,0-2.91-.14-4.41-.24a194.35,194.35,0,0,0-24.25-.48c-1.51.1-3,.24-4.48.44l-3.14.5c-1.39.26-2.77.56-4.15.91a31.49,31.49,0,0,0-3.74,1.09.48.48,0,0,1-.23.19l-2.66,1.14c-.8.33-1.6.69-2.43,1l-.13,0a.49.49,0,0,1-.68.19c-.27-.14-.28-.4-.17-.7a.55.55,0,0,1,.16-.32c.33-.57.91-1.2,1-1.5l.24-.32q.51-1,1-2A51.89,51.89,0,0,1,174,44.56c4.52-5.38,9.31-6.12,16-5.75s13.35.75,20,1.36c9,1.09,14.63.62,22.13-4.49h0c2.13-1.71,4.2-3.51,6.22-5.34.65-.5,1.15-1.35,2-1.47C242.89,28.87,237.92,40.84,237.45,42.47Z"/><path class="cls-3" d="M45.36,41.2h0"/><path class="cls-3" d="M35,49.06h0"/><path class="cls-3" d="M35,49.05h0"/><path class="cls-3" d="M44,51.23l-.09.06"/><path class="cls-3" d="M46.08,47.67h0"/><path class="cls-2" d="M84.21,76.19a84.66,84.66,0,0,0,6.94-12.41,54.57,54.57,0,0,0,4.78-14.86C98.05,34.56,92.72,25.42,78,23c-9.56-1.53-19.38.29-28.53,3.14a60.53,60.53,0,0,0-14.92,7.28,57.1,57.1,0,0,0-15,15.78,40.1,40.1,0,0,0-6,14.57c-1.7,8.25-.85,19.28,7.61,23.47a11.42,11.42,0,0,0,7.47,1,7.1,7.1,0,0,0,4.7-1.48,10.12,10.12,0,0,0,2.85-3.91q-1.91,9.2-4,18.37c-2,10.2-4.42,20.34-8.17,30.08A24,24,0,0,1,23,134.18c-.39,1-.81,2-1.28,3-.63,1.31-1.39,2.56-2.14,3.8s-1.48,2.41-2.29,3.56c-.11.15-.22.31-.34.46-.38.52-.78,1-1.2,1.49a2.3,2.3,0,0,0,1.53-.32c9.24-4.94,13.67,1.81,22.29,3,1.18.22,6.92,0,6.94-1.53a.74.74,0,0,0-.61-.56c-3.06-.86-3-4.45-2.86-7.05.47-4.33,1.33-8.62,2-12.93,1.48-8.27,3.12-16.51,4.43-24.8,2.21.42,4.39,1,6.56,1.54,1.71.46,3.42.92,5.1,1.47a2,2,0,0,1,.66.34,7.64,7.64,0,0,1-.86,2,49,49,0,0,0-2.56,6.13,41.22,41.22,0,0,0-2.13,15.81,31.89,31.89,0,0,0,1.28,7.07,32.71,32.71,0,0,0,1.89,4.87c3.58,7.4,10,13.33,18.52,13.68h.56c5.79,0,11.83-2.43,15.36-7.14.56-.82,2.2-2.73,1.63-3.73-.6-.63-1.44.1-2,.37a21.51,21.51,0,0,1-3.47,1.62,12,12,0,0,1-5.3.68c-7.4-1.82-10-8-10.44-15.11-.53-7.9,1.67-15.73,5.17-22.78,1.1-2.15,2.36-4.36,3.6-6.46.54-1.12,1.94-2.58,1.44-3.86-.48-.67-1.44-.64-2.16-.86-5.47-1.22-11-2.36-16.42-3.68-1.73-.37-3.45-.81-5.19-1.22A43,43,0,0,0,68,90.64C74.76,87.71,80.12,82.3,84.21,76.19ZM64,77.85a41.25,41.25,0,0,1-11.76,7.46C54.6,71.83,56.9,58.36,59.57,45l-.76.15c-1.45.32-2.88.74-4.3,1.18a42.72,42.72,0,0,0-7.91,3.36c-.87.48-1.71,1-2.53,1.57l0,0-.09.06c-.71.52-1.4,1.05-2.06,1.63-1.05,6-2,11.95-3.21,17.89C38,74,37.39,77.15,36.74,80.31a4.78,4.78,0,0,0-.44-2c-.63-.81-1.43-.53-2.37-.25a3.49,3.49,0,0,1-3.51-.43l-.09,0a2.06,2.06,0,0,1-.68-.51,1.56,1.56,0,0,1-.61-.64,3.51,3.51,0,0,1-.29-.36,2.39,2.39,0,0,1-.21-.34.8.8,0,0,1-.08-.16,7.32,7.32,0,0,1-.54-2,17.22,17.22,0,0,1-.2-2.37A34.22,34.22,0,0,1,28,66.44a37.21,37.21,0,0,1,1.75-7.72,29.23,29.23,0,0,1,2.13-4.86A44.44,44.44,0,0,1,35,49.07h0l0,0a34.68,34.68,0,0,1,7.6-7.6l0,0h0a28,28,0,0,1,3.76-2.23,30.85,30.85,0,0,1,4.15-1.64,27.18,27.18,0,0,1,8.91-1.35,25.09,25.09,0,0,1,4.73.52c.81.18,1.63.38,2.43.63.56.13,1.11.29,1.65.47a17.63,17.63,0,0,1,4.46,2.25,8.59,8.59,0,0,1,.94.75,6.64,6.64,0,0,1,1.79,1.76c2.75,4.61,1.8,11.15.42,16.09A38.3,38.3,0,0,1,64,77.85Z"/><path class="cls-2" d="M125.15,69.26a43.64,43.64,0,0,0-6.61-4.07c-3-1-4.66,1.68-6.59,3.36a25.72,25.72,0,0,1-5.86,3.8,15.92,15.92,0,0,1-8.09,2,.49.49,0,0,0-.53-.1c-.32.13-.36.51-.45.79-.31,1.2-.53,2.41-.74,3.63l0,.11-.06.26c-2.07,9-3.66,18-5.83,27-.85,3.65-1.76,7.27-2.66,10.9-.26,1.12-.56,2.22-.74,3.35a2.65,2.65,0,0,0,.66,1.79,24.64,24.64,0,0,0,4.1,4,70.19,70.19,0,0,0,6.4,4.84c2.09,1.4,4.18,2.78,6.3,4.14a28.53,28.53,0,0,0,4.57,2.64h.15a5.67,5.67,0,0,0,1.17-.13,14.52,14.52,0,0,0,2.67-1l.73-.32a29.89,29.89,0,0,0,11.3-9.72,41.48,41.48,0,0,0,2.93-4.59c.3-.7.94-1.39.85-2.2-.49-1.16-2.31.14-3.13.37-1.19.5-2.4,1-3.62,1.4-4,1.37-8.33,2.17-12.52,1.3-5.12-1.27-6.23-2.19-5.78-7.58A68.43,68.43,0,0,1,105.39,105a33.39,33.39,0,0,0,9.82-1.73,40.9,40.9,0,0,0,7-3.45,23.57,23.57,0,0,0,5.24-6.14c1.13-1.79,2.14-3.65,3.13-5.51s2.1-3.72,2.31-5.84C133.35,77,129.33,72.21,125.15,69.26Zm-7.56,18.95c-1.8,3.57-5.67,5.32-9.43,6,.39-1.45.79-2.89,1.2-4.33.69-2.41,1.38-4.81,2.2-7.17a24.48,24.48,0,0,1,1-2.57,1.43,1.43,0,0,1,1-1h.17C118,79.22,119.23,85,117.59,88.21Z"/><path class="cls-2" d="M179.62,84.9a36.83,36.83,0,0,0-9.12-13.62c-2.39-2.42-3.45-1.52-6.15-.36-1.87.83-3.75,1.64-5.68,2.32a31.26,31.26,0,0,1-4.42,1.25q.66-7.32,1.18-14.65v0c1.51-11.51,3.37-23,5.47-34.38a0,0,0,0,0,0,0q1.36-5.51,3-10.93c.53-1.79-.76-2.49-2-1.19a104.37,104.37,0,0,0-8.72,10.61c-2,2.59-3.71,5.35-5.79,7.86-.85.89-1,1.44-2.28.64C143,31.24,141,29.94,139,28.76c-.19-.11-.37-.22-.57-.32a.5.5,0,0,0-.78.54.3.3,0,0,0,0,.1,1.56,1.56,0,0,0,.14.71l.8,2.3c1.24,3.91,3,7.67,3.18,11.84.54,11.7-1.68,23.34-3.21,34.9-1.23,8.83-1.81,17.74-3,26.59s-2.7,17.39-3.77,26.12c0,.72-.8,3.66.06,3.85a.64.64,0,0,0,.23.05,1.11,1.11,0,0,0,.44-.12,25.32,25.32,0,0,0,2.87-2.09,28.55,28.55,0,0,1,8.72-4.94c1.87-.13,3.58.87,5.35,1.41a25.89,25.89,0,0,0,5.92,1.52c6.3.84,12.33-2.65,16.36-7.28,5.77-6.4,8.11-15,8.94-23.42A40.33,40.33,0,0,0,179.62,84.9Zm-29.08,32.31a7.85,7.85,0,0,1-1,0q.59-6,1.28-12.07,1.32-10.09,2.38-20.22c.05-.38.11-.76.16-1.14,5.82.58,12,3.36,12.3,10C165.85,103.32,161.74,116.48,150.54,117.21Z"/><path class="cls-2" d="M237.45,42.47c-2.87,8.68-8,11.87-14.59,12.83,0,.89-.07,1.78-.11,2.68-.26,6.72-.8,13.43-1.45,20.13-1.06,11.17-2.12,22.37-4.21,33.41a105.29,105.29,0,0,1-3,12.22c-.57,1.84-1.29,3.76-1.93,5.55a5.6,5.6,0,0,0-.42,1.63c0,.05,0,.1,0,.15a53.23,53.23,0,0,0,6.8-.07c1.6-.13,3.19.25,1.61,2-3.49,3.83-7.17,7.47-10.81,11.16-2.14,2.06-4.36,4.42-6.7,6.71-4.81,5.58-11,11.4-18.72,11.4a15.2,15.2,0,0,1-1.76-.1,61.77,61.77,0,0,1-20.78-5c-8.74-4-15-9.13-24.65-7.37-1.3.57-3.49,1.79-4.11,1.1-.45-.71.53-1.24,1-1.68q1.76-1.53,3.54-3a76.35,76.35,0,0,1,7.08-5.26c1.09-.8,2.19-1.58,3.31-2.33,4.7-3.28,7.45-3.36,12.48-.68,4,2.09,7.92,4.51,12.17,6.12a24.61,24.61,0,0,0,5.22,1.24,16.68,16.68,0,0,0,3.93-.77l.15-.05h0c7-3.76,10-11.75,11.86-19A150.69,150.69,0,0,0,197,106.23c.85-5.88,1.9-11.73,2.65-17.61.51-4.06.94-8.14,1.19-12.21a48.17,48.17,0,0,0-.14-10.87,6.42,6.42,0,0,0-.43-1.37.6.6,0,0,1,.28-.76c1.27-.7,2.72-1,4-1.63a37.36,37.36,0,0,0,10.2-6.17c-1.43,0-2.91-.14-4.41-.24a194.35,194.35,0,0,0-24.25-.48c-1.51.1-3,.24-4.48.44-1,.14-2.1.31-3.14.5-1.39.26-2.77.56-4.15.91a31.49,31.49,0,0,0-3.74,1.09.48.48,0,0,1-.23.19l-2.66,1.14c-.8.33-1.6.69-2.43,1l-.13,0a.49.49,0,0,1-.68.19c-.27-.14-.28-.4-.17-.7a.55.55,0,0,1,.16-.32c.33-.57.91-1.2,1-1.5l.24-.32q.51-1,1-2A51.89,51.89,0,0,1,174,44.56c4.52-5.38,9.31-6.12,16-5.75s13.35.75,20,1.36c9,1.09,14.63.62,22.13-4.49h0c2.13-1.71,4.2-3.51,6.22-5.34.65-.5,1.15-1.35,2-1.47C242.89,28.87,237.92,40.84,237.45,42.47Z"/><path class="cls-2" d="M98,57.23a2,2,0,0,1,1.6-.36,2.06,2.06,0,0,1,1.16,1l1.45,2.24a2,2,0,0,1,.35,1.5,2,2,0,0,1-1,1.26l-2.12,1.36s-.08,0-.11,0l-3.51-5.45c0-.05,0-.09,0-.12Zm1.81,1.57a1.11,1.11,0,0,0-.62-.51,1,1,0,0,0-.81.19l-.77.5,2.24,3.47.76-.49a1,1,0,0,0,.49-.63,1,1,0,0,0-.17-.8Z"/><path class="cls-2" d="M103.92,61.33l-2.68-5.9a.07.07,0,0,1,0-.11l3.13-1.42s.09,0,.12,0l.44,1a.08.08,0,0,1,0,.12l-2,.91.57,1.25,1.55-.71s.08,0,.11,0l.45,1q0,.09,0,.12l-1.55.7.62,1.35,2-.9a.08.08,0,0,1,.12,0l.45,1c0,.06,0,.1,0,.12L104,61.38S104,61.38,103.92,61.33Z"/><path class="cls-2" d="M109.16,55.06l.66.15a3,3,0,0,1,.67.25,2.07,2.07,0,0,1,.56.41,1.4,1.4,0,0,1,.35.62,1.46,1.46,0,0,1,0,.27,1.78,1.78,0,0,1,0,.35,2.67,2.67,0,0,1,0,.4,3.15,3.15,0,0,1-.09.42,2,2,0,0,1-1.48,1.27,2.76,2.76,0,0,1-.65.1,3.14,3.14,0,0,1-.68-.07A2.4,2.4,0,0,1,108,59a1.79,1.79,0,0,1-.5-.49.06.06,0,0,1,0-.09l.68-1s.08,0,.13,0l.07.08.1.11a1.15,1.15,0,0,0,.46.32.93.93,0,0,0,.59,0,1.15,1.15,0,0,0,.23-.1,1.06,1.06,0,0,0,.2-.17.83.83,0,0,0,.12-.25.68.68,0,0,0,0-.31.5.5,0,0,0-.18-.27,1.23,1.23,0,0,0-.32-.17,2.49,2.49,0,0,0-.37-.09l-.35,0-.75-.12a2.7,2.7,0,0,1-.72-.26A1.72,1.72,0,0,1,106.4,55a1.77,1.77,0,0,1,0-.85,1.87,1.87,0,0,1,.34-.71,2.44,2.44,0,0,1,.61-.54,2.83,2.83,0,0,1,.75-.34,2.07,2.07,0,0,1,2.23.78.09.09,0,0,1,0,.12l-.7.84s-.06,0-.1,0a2.44,2.44,0,0,0-.64-.39.92.92,0,0,0-.57,0l-.19.08a.63.63,0,0,0-.2.13.65.65,0,0,0-.15.18.33.33,0,0,0,0,.24.4.4,0,0,0,.22.26,1.69,1.69,0,0,0,.38.13,2.24,2.24,0,0,0,.44.07Z"/><path class="cls-2" d="M112.61,58.4,111.72,52c0-.06,0-.09.07-.1l1.14-.16a.09.09,0,0,1,.1.08l.89,6.41c0,.06,0,.1-.07.11l-1.14.15C112.65,58.48,112.62,58.46,112.61,58.4Z"/><path class="cls-2" d="M116.84,55.65l0-1.08a.08.08,0,0,1,.09-.09l2.31,0a.08.08,0,0,1,.09.09l0,1.58a2,2,0,0,1-.61,1.61,2.54,2.54,0,0,1-1.72.46,3.48,3.48,0,0,1-.95-.12,1.82,1.82,0,0,1-.72-.37,1.57,1.57,0,0,1-.46-.66,2.63,2.63,0,0,1-.16-1l0-2.65a2,2,0,0,1,.62-1.58,2.6,2.6,0,0,1,1.73-.47,3.48,3.48,0,0,1,1,.12,1.87,1.87,0,0,1,.73.37,1.8,1.8,0,0,1,.45.65,2.64,2.64,0,0,1,.14,1v.21a.08.08,0,0,1-.09.09l-1.16,0a.08.08,0,0,1-.09-.09V53.6a.72.72,0,0,0-.25-.64,1.13,1.13,0,0,0-.65-.19H117a.82.82,0,0,0-.71.28.84.84,0,0,0-.15.33,2,2,0,0,0,0,.44l0,2a1.65,1.65,0,0,0,.07.54.88.88,0,0,0,.2.33.69.69,0,0,0,.29.16,1.19,1.19,0,0,0,.32,0h.12a.8.8,0,0,0,.69-.28,1.28,1.28,0,0,0,.24-.77v-.09l-1.06,0A.08.08,0,0,1,116.84,55.65Z"/><path class="cls-2" d="M124.25,52.49l1.13.26c.06,0,.08,0,.07.11L124,59.16c0,.06,0,.09-.11.07L122.76,59c-.05,0-.07,0-.08-.06L122,55.34l-.75,3.19c0,.06-.05.08-.11.06L120,58.33s-.07,0-.06-.11l1.49-6.3c0-.06.05-.08.1-.07l1.16.28s0,0,.06.06l.62,3.5.74-3.14S124.19,52.47,124.25,52.49Z"/><path class="cls-2" d="M133,58.3a3.22,3.22,0,0,1-.31.45,1.25,1.25,0,0,1-.36.3,1.56,1.56,0,0,1,0,.83,3.9,3.9,0,0,1-.42,1,3.71,3.71,0,0,1-.69.89,1.41,1.41,0,0,1-.74.37,1.63,1.63,0,0,1-.75-.09,5.46,5.46,0,0,1-.74-.35l-1.69-1a.08.08,0,0,1,0-.12L130.57,55a.08.08,0,0,1,.11,0l1.39.82a6.67,6.67,0,0,1,.68.45,1.66,1.66,0,0,1,.47.56,1.14,1.14,0,0,1,.1.77A2.37,2.37,0,0,1,133,58.3Zm-3.62,2.06a1.76,1.76,0,0,0,.37.17.94.94,0,0,0,.37,0,.77.77,0,0,0,.35-.12,1,1,0,0,0,.29-.31.87.87,0,0,0,.1-.65.82.82,0,0,0-.41-.53l-.52-.3-.89,1.51Zm1.24-2.87.53.31a.62.62,0,0,0,.36.1c.11,0,.2-.09.29-.24a.36.36,0,0,0,0-.41,1.18,1.18,0,0,0-.4-.34l-.35-.21Z"/><path class="cls-2" d="M137.39,59.52l.05,0a.05.05,0,0,1,0,0l.89.7a.09.09,0,0,1,0,.07.08.08,0,0,1,0,.07l-3.26,1.75-1.9,2.39s-.08,0-.13,0l-.93-.74s0-.07,0-.11l1.9-2.39L135,57.7c0-.09.08-.11.14-.06l.89.71s0,0,0,0,0,0,0,.06l-.37,1.87Z"/></g></g></svg>